<svg xmlns="http://www.w3.org/2000/svg" viewBox="0 0 512 512" role="img" aria-labelledby="title desc">
  <title id="title">fheENV</title><desc id="desc">An encrypted environment lock</desc>
  <defs>
    <linearGradient id="background" x1="64" y1="32" x2="448" y2="480" gradientUnits="userSpaceOnUse">
      <stop stop-color="#03346E"/><stop offset="1" stop-color="#021526"/>
    </linearGradient>
    <linearGradient id="metal" x1="176" y1="138" x2="336" y2="370" gradientUnits="userSpaceOnUse">
      <stop stop-color="#E2E2B6"/><stop offset=".52" stop-color="#6EACDA"/><stop offset="1" stop-color="#427EAF"/>
    </linearGradient>
  </defs>
  <rect width="512" height="512" rx="120" fill="url(#background)"/>
  <rect x="34" y="34" width="444" height="444" rx="98" fill="none" stroke="#6EACDA" stroke-opacity=".24" stroke-width="4"/>
  <g fill="none" stroke="#6EACDA" stroke-opacity=".24" stroke-width="5">
    <path d="M96 144h76m168 0h76M96 368h76m168 0h76"/><path d="M144 96v76m0 168v76M368 96v76m0 168v76"/>
  </g>
  <g transform="translate(0 8)">
    <path d="M180 246v-72a76 76 0 0 1 152 0v72" fill="none" stroke="url(#metal)" stroke-width="34" stroke-linecap="round"/>
    <rect x="126" y="246" width="260" height="188" rx="42" fill="url(#metal)"/>
    <rect x="151" y="271" width="210" height="138" rx="26" fill="#021526"/>
    <path d="m236 322-18 18 18 18m40-36 18 18-18 18M256 307v66" fill="none" stroke="#6EACDA" stroke-width="14" stroke-linecap="round" stroke-linejoin="round"/>
    <circle cx="256" cy="340" r="15" fill="#E2E2B6"/>
  </g>
</svg>
